GIL01_slow3_RRA_states
nRows=8
nColumns=47

# SIMM Motion File Header:
name GIL01_slow3_RRA_states
datacolumns 47
datarows 8
otherdata 1
range 0.21833000000000000000 0.21833126999999999000
endheader
time	pelvis_tx	pelvis_ty	pelvis_tz	pelvis_tilt	pelvis_list	pelvis_rotation	hip_flexion_r	hip_adduction_r	hip_rotation_r	knee_angle_r	ankle_angle_r	subtalar_angle_r	mtp_angle_r	hip_flexion_l	hip_adduction_l	hip_rotation_l	knee_angle_l	ankle_angle_l	subtalar_angle_l	mtp_angle_l	lumbar_extension	lumbar_bending	lumbar_rotation	pelvis_tx_u	pelvis_ty_u	pelvis_tz_u	pelvis_tilt_u	pelvis_list_u	pelvis_rotation_u	hip_flexion_r_u	hip_adduction_r_u	hip_rotation_r_u	knee_angle_r_u	ankle_angle_r_u	subtalar_angle_r_u	mtp_angle_r_u	hip_flexion_l_u	hip_adduction_l_u	hip_rotation_l_u	knee_angle_l_u	ankle_angle_l_u	subtalar_angle_l_u	mtp_angle_l_u	lumbar_extension_u	lumbar_bending_u	lumbar_rotation_u
      0.21833000000000000000	     -0.92314606860184345000	      0.80052149479387036000	      0.26237664337020400000	      1.95867909589365750000	      5.75538385223375040000	     -2.96255945618417060000	    -12.29651489551889800000	     -9.54845204804462000000	    -16.41744889623023700000	    -29.32297999395039800000	     -7.97016870215869130000	      0.00000000000000000000	      0.00000000000000000000	      0.58398445819132250000	      7.30759424863414160000	     -7.94728742176510660000	     10.01402175895949900000	     -7.07566920864594540000	      0.00000000000000000000	      0.00000000000000000000	      4.07351648700745810000	     -6.92073210402801390000	     12.41423615924698600000	      0.66589387605487615000	      0.06844012164877909300	     -0.19163230286931637000	      9.72602915440416280000	      1.56924507440904290000	      6.26450756675939150000	     84.22308681920786500000	    -40.40801114175145900000	      6.99587346789692430000	   -180.36087453862754000000	    -10.17358745689611000000	      0.00000000000000000000	      0.00000000000000000000	    -77.39857760545716300000	     14.61841551214882500000	     -9.33434494467980260000	     -0.00001216893060689313	     38.69588023797701500000	      0.00000000000000000000	      0.00000000000000000000	     -2.34439302040316870000	     -8.83859258011374220000	    -21.79555071537714600000
      0.21833000999999999000	     -0.92314606194290483000	      0.80052149547827156000	      0.26237664145388101000	      1.95867919315394220000	      5.75538386792619510000	     -2.96255939353909530000	    -12.29651405328800700000	     -9.54845245212471920000	    -16.41744882627149600000	    -29.32298179755912700000	     -7.97016880389448800000	     -0.00000000000000000000	      0.00000000000000000000	      0.58398368420556135000	      7.30759439481828910000	     -7.94728751510855340000	     10.01402175895937700000	     -7.07566882168718170000	     -0.00000000000000000000	     -0.00000000000000000000	      4.07351646356353040000	     -6.92073219241393200000	     12.41423594129146400000	      0.66589385781035781000	      0.06844011391771461000	     -0.19163229748496105000	      9.72602779308323480000	      1.56924392401549320000	      6.26450760873486170000	     84.22309125696180800000	    -40.40800874260200000000	      6.99587495192732070000	   -180.36087135549582000000	    -10.17357201617332100000	     -0.00000000000000000001	      0.00000000000000000001	    -77.39857463476299400000	     14.61841381738482500000	     -9.33434425673377000000	     -0.00001224428334376214	     38.69587256602567000000	     -0.00000000000000000023	     -0.00000000000000000066	     -2.34439267772809990000	     -8.83859110356187470000	    -21.79555402850410700000
      0.21833002999999998000	     -0.92314604862502803000	      0.80052149684707363000	      0.26237663762123514000	      1.95867938767447080000	      5.75538389931105070000	     -2.96255926824894190000	    -12.29651236882609300000	     -9.54845326028484640000	    -16.41744868635396400000	    -29.32298540477648900000	     -7.97016900736561950000	     -0.00000000000000000000	      0.00000000000000000000	      0.58398213623412809000	      7.30759468718653160000	     -7.94728770179542470000	     10.01402175895913200000	     -7.07566804776988430000	     -0.00000000000000000000	     -0.00000000000000000000	      4.07351641667568300000	     -6.92073236918572480000	     12.41423550538031900000	      0.66589382132133268000	      0.06844009845560451700	     -0.19163228671625279000	      9.72602507045317570000	      1.56924162323481480000	      6.26450769268638300000	     84.22310013245052600000	    -40.40800394430979700000	      6.99587791998038530000	   -180.36086498922074000000	    -10.17354113473064100000	     -0.00000000000000000000	     -0.00000000000000000005	    -77.39856869339227800000	     14.61841042786633300000	     -9.33434288083019050000	     -0.00001239498328711765	     38.69585722237575000000	     -0.00000000000000000069	      0.00000000000000000046	     -2.34439199238959660000	     -8.83858815046626310000	    -21.79556065475948400000
      0.21833006999999999000	     -0.92314602198927664000	      0.80052149958467700000	      0.26237662995594413000	      1.95867977671536480000	      5.75538396208062330000	     -2.96255901766863120000	    -12.29650899990173400000	     -9.54845487660481140000	    -16.41744840651873000000	    -29.32299261921083700000	     -7.97016941430602980000	     -0.00000000000000000000	      0.00000000000000000000	      0.58397904029161796000	      7.30759527192281320000	     -7.94728807516908460000	     10.01402175895862900000	     -7.07566649993620890000	      0.00000000000000000000	     -0.00000000000000000000	      4.07351632290003090000	     -6.92073272272913260000	     12.41423463355762600000	      0.66589374834332882000	      0.06844006753145978600	     -0.19163226517884568000	      9.72601962524024440000	      1.56923702169914400000	      6.26450786059175970000	     84.22311788335126400000	    -40.40799434775227200000	      6.99588385605560690000	   -180.36085225662404000000	    -10.17347937185688200000	     -0.00000000000000000000	      0.00000000000000000002	    -77.39855681072121700000	     14.61840364886739300000	     -9.33434012897698300000	     -0.00001269636105226687	     38.69582653608701200000	      0.00000000000000000134	     -0.00000000000000000012	     -2.34439062175912260000	     -8.83858224430754190000	    -21.79557390727606100000
      0.21833015000000000000	     -0.92314596871778265000	      0.80052150505987996000	      0.26237661462536466000	      1.95868055479649940000	      5.75538408761921700000	     -2.96255851650798840000	    -12.29650226205088400000	     -9.54845810924359210000	    -16.41744784684754800000	    -29.32300704807799700000	     -7.97017022817943840000	     -0.00000000000000000000	      0.00000000000000000000	      0.58397284840802366000	      7.30759644139456200000	     -7.94728882191607510000	     10.01402175895758800000	     -7.07566340427254040000	      0.00000000000000000000	     -0.00000000000000000000	      4.07351613534889090000	     -6.92073342981523960000	     12.41423288991065400000	      0.66589360238750683000	      0.06844000568347211000	     -0.19163222210406924000	      9.72600873500313410000	      1.56922781873054600000	      6.26450819641184080000	     84.22315338484610000000	    -40.40797515474473300000	      6.99589572808241210000	   -180.36082679124451000000	    -10.17335584615576500000	     -0.00000000000000000011	      0.00000000000000000017	    -77.39853304566065600000	     14.61839009102168200000	     -9.33433462508636860000	     -0.00001329902809605996	     38.69576516755385900000	      0.00000000000000000122	     -0.00000000000000000368	     -2.34438788068430610000	     -8.83857043212008620000	    -21.79560041233250400000
      0.21833031000000000000	     -0.92314586217482963000	      0.80052151601027099000	      0.26237658396421604000	      1.95868211095615450000	      5.75538433869419470000	     -2.96255751418662340000	    -12.29648878634066000000	     -9.54846457451654550000	    -16.41744672750233000000	    -29.32303590580620800000	     -7.97017185589661010000	     -0.00000000000000000000	      0.00000000000000000000	      0.58396046464653872000	      7.30759878033480700000	     -7.94729031540873440000	     10.01402175895536400000	     -7.07565721295993200000	      0.00000000000000000000	     -0.00000000000000000000	      4.07351576024726820000	     -6.92073484398461950000	     12.41422940261034600000	      0.66589331047660605000	      0.06843988198870391800	     -0.19163213595466738000	      9.72598695528391840000	      1.56920941320432260000	      6.26450886808931800000	     84.22322438660909000000	    -40.40793676915965400000	      6.99591947164147760000	   -180.36077585974093000000	    -10.17310879493912900000	     -0.00000000000000000017	      0.00000000000000000054	    -77.39848551666575800000	     14.61836297593893800000	     -9.33432361656834430000	     -0.00001450400823555838	     38.69564244666494800000	      0.00000000000000000359	      0.00000000000000000384	     -2.34438239927919810000	     -8.83854680826512860000	    -21.79565342253853200000
      0.21833063000000000000	     -0.92314564908906371000	      0.80052153791099367000	      0.26237652264196010000	      1.95868522326501090000	      5.75538484083531810000	     -2.96255550954357050000	    -12.29646183488613800000	     -9.54847750504402800000	    -16.41744448880049800000	    -29.32309362123818600000	     -7.97017511121236840000	      0.00000000000000000000	      0.00000000000000000000	      0.58393569714638216000	      7.30760345820228350000	     -7.94729330238876930000	     10.01402175895033700000	     -7.07564483039361130000	     -0.00000000000000000000	      0.00000000000000000000	      4.07351501004665370000	     -6.92073767231203800000	     12.41422242798428900000	      0.66589272665777721000	      0.06843963460399619900	     -0.19163196365646776000	      9.72594339886550150000	      1.56917260379575700000	      6.26451021159353600000	     84.22336638522836000000	    -40.40785999970951500000	      6.99596695678142930000	   -180.36067399375577000000	    -10.17261469324824600000	      0.00000000000000000152	     -0.00000000000000000003	    -77.39839046318083100000	     14.61830874820817500000	     -9.33430159658510310000	     -0.00001691255270567317	     38.69539706959673700000	     -0.00000000000000001740	      0.00000000000000002666	     -2.34437143944708200000	     -8.83849956263501110000	    -21.79575944332316300000
      0.21833126999999999000	     -0.92314522291809231000	      0.80052158171220145000	      0.26237639999761364000	      1.95869144784091320000	      5.75538584508222860000	     -2.96255150025617510000	    -12.29640793184077700000	     -9.54850336602529740000	    -16.41744001135126000000	    -29.32320905200434800000	     -7.97018162136954800000	      0.00000000000000000000	      0.00000000000000000000	      0.58388616223731549000	      7.30761281388517860000	     -7.94729927632769510000	     10.01402175893797200000	     -7.07562006549646410000	     -0.00000000000000000000	      0.00000000000000000000	      4.07351350965594430000	     -6.92074332892152280000	     12.41420847863038900000	      0.66589155903201069000	      0.06843913985389533900	     -0.19163161906248494000	      9.72585629810871130000	      1.56909899155408250000	      6.26451289919905820000	     84.22365036284013200000	    -40.40770646768927300000	      6.99606191914861860000	   -180.36047024987332000000	    -10.17162649283598700000	      0.00000000000000000338	     -0.00000000000000000146	    -77.39820037423044100000	     14.61820030248550300000	     -9.33425754482985500000	     -0.00002172397827814406	     38.69490657429933100000	     -0.00000000000000002956	      0.00000000000000005608	     -2.34434953169522810000	     -8.83840507969389220000	    -21.79597148638275800000
